<?xml version="1.0" standalone="no"?>
<!DOCTYPE svg PUBLIC "-//W3C//DTD SVG 20010904//EN"
 "http://www.w3.org/TR/2001/REC-SVG-20010904/DTD/svg10.dtd">
<svg version="1.0" xmlns="http://www.w3.org/2000/svg"
 width="752.000000pt" height="752.000000pt" viewBox="0 0 752.000000 752.000000"
 preserveAspectRatio="xMidYMid meet">
<metadata>
Created by potrace 1.14, written by Peter Selinger 2001-2017
</metadata>
<g transform="translate(0.000000,752.000000) scale(0.100000,-0.100000)"
fill="#000000" stroke="none">
<path d="M3695 7165 c-33 -24 -64 -48 -70 -52 -5 -5 -93 -68 -195 -142 -102
-74 -207 -151 -235 -171 -27 -21 -160 -117 -295 -215 -135 -98 -267 -194 -295
-215 -247 -184 -601 -435 -616 -437 -11 -2 -18 2 -16 10 1 6 -4 11 -10 9 -7
-1 -13 2 -13 7 0 5 6 12 13 14 9 4 9 6 0 6 -6 1 -15 -4 -18 -9 -4 -7 -13 -7
-25 0 -17 9 -19 8 -13 -7 6 -16 5 -17 -12 -3 -19 15 -19 14 -1 -14 11 -18 13
-26 5 -21 -31 18 -49 39 -49 57 0 11 -4 17 -8 14 -4 -2 -14 9 -21 26 -13 28
-15 29 -27 14 -8 -11 -14 -13 -19 -6 -11 18 -25 0 -21 -26 3 -13 1 -24 -3 -24
-4 0 -6 -12 -6 -27 1 -16 -6 -37 -14 -47 -9 -11 -10 -16 -4 -12 9 5 11 2 7 -8
-3 -9 -11 -13 -16 -10 -6 4 -5 -3 1 -15 9 -17 8 -26 -6 -48 -10 -15 -12 -24
-5 -20 6 5 12 4 12 -2 0 -6 -5 -11 -11 -11 -6 0 -10 -10 -9 -22 1 -13 2 -28 1
-35 -1 -9 -215 -173 -304 -233 -25 -16 -557 -403 -702 -510 -49 -36 -187 -137
-305 -223 -118 -86 -225 -165 -237 -174 l-23 -18 131 -400 c72 -220 189 -580
260 -800 72 -220 134 -410 139 -423 16 -38 12 -58 -12 -59 -13 -1 -31 -13 -40
-27 -13 -17 -25 -23 -41 -19 -18 4 -19 3 -7 -6 10 -7 11 -11 3 -11 -7 0 -13
-7 -13 -15 0 -8 -5 -15 -11 -15 -5 0 -7 5 -3 12 4 7 3 8 -5 4 -6 -4 -9 -11 -6
-16 3 -5 1 -11 -5 -15 -6 -4 -7 -11 -4 -17 4 -7 2 -8 -4 -4 -7 4 -13 2 -13 -3
-1 -6 -3 -15 -4 -21 -1 -5 -3 -15 -4 -21 0 -5 -5 -8 -9 -5 -5 3 -9 -1 -9 -9 0
-8 4 -15 9 -15 5 0 0 -10 -12 -22 -15 -17 -17 -24 -8 -30 10 -6 10 -10 1 -16
-8 -5 -11 -26 -9 -57 1 -28 -2 -56 -8 -64 -8 -11 -8 -13 2 -7 8 5 12 0 12 -14
0 -14 -4 -19 -12 -14 -9 5 -9 2 1 -9 7 -9 10 -17 6 -17 -4 0 -2 -7 5 -15 7 -8
10 -22 6 -30 -3 -8 -1 -15 5 -15 6 0 9 -7 5 -15 -3 -8 -1 -15 4 -15 5 0 7 -7
4 -15 -4 -8 -1 -15 4 -15 6 0 9 -9 7 -20 -2 -11 0 -20 6 -20 5 0 9 -7 9 -16 0
-8 6 -22 14 -30 8 -7 13 -25 12 -39 -2 -14 1 -25 5 -25 11 0 7 -23 -6 -32 -6
-5 -3 -8 7 -8 10 0 16 -6 14 -13 -1 -6 -1 -9 1 -4 3 4 14 7 24 7 11 0 18 4 15
9 -6 9 27 19 64 20 8 0 26 2 40 5 14 2 33 4 43 5 9 0 17 8 17 16 0 8 3 14 8
14 19 -3 33 2 27 11 -6 10 40 26 63 22 11 -3 16 10 13 31 0 4 3 7 7 7 4 0 19
-33 31 -73 13 -39 23 -72 21 -72 -1 0 8 -25 19 -55 l21 -54 -35 -121 c-41
-145 -105 -416 -105 -449 0 -4 12 -5 26 -2 26 7 26 6 21 -39 -5 -40 -4 -45 11
-41 27 8 83 18 125 21 21 1 40 5 43 7 2 3 17 42 32 87 l27 82 89 -273 c49
-150 120 -367 158 -483 38 -116 71 -217 73 -225 2 -8 22 -69 44 -135 l39 -120
2244 -1 2245 -1 42 131 c70 217 249 772 298 921 25 77 49 144 53 148 4 4 6
-11 5 -33 -1 -31 3 -45 17 -53 11 -8 18 -24 18 -43 0 -31 3 -33 86 -63 47 -17
87 -31 90 -31 5 0 -4 154 -11 200 -3 14 -7 72 -10 130 -13 230 -15 256 -21
285 -4 17 -13 37 -20 45 -11 13 -6 37 31 150 25 74 47 141 50 149 4 11 9 10
20 -5 12 -15 14 -15 9 -2 -4 12 -1 16 13 14 10 -2 17 -6 15 -11 -2 -4 7 -14
20 -21 66 -38 89 -43 151 -31 23 5 30 1 39 -19 6 -13 15 -24 20 -24 10 0 48
84 48 108 1 9 8 35 16 57 9 22 17 54 19 70 2 17 4 30 5 30 1 0 3 16 5 35 2 19
4 35 5 35 1 0 4 49 5 109 3 76 0 120 -10 142 -7 18 -11 35 -9 38 2 3 1 4 -3 1
-3 -3 -15 14 -25 37 -10 22 -21 38 -25 35 -3 -4 -12 1 -19 12 -7 10 -31 21
-53 25 l-40 6 24 73 c13 39 51 158 85 262 33 105 85 264 115 355 29 91 99 307
155 480 56 173 117 362 136 419 19 58 34 106 34 106 0 1 -26 19 -57 41 -32 21
-65 44 -73 51 -8 7 -91 68 -185 136 -977 708 -1228 893 -1235 911 -4 12 -4 31
1 44 5 12 5 22 0 22 -4 0 -8 6 -9 13 0 6 -4 26 -7 42 -4 17 -8 36 -8 43 0 7
-6 11 -13 8 -8 -3 -11 0 -7 9 3 8 10 12 17 8 6 -4 5 1 -3 10 -7 9 -11 17 -7
17 4 0 0 10 -9 23 -8 13 -12 27 -8 30 3 4 1 7 -5 7 -7 0 -12 7 -12 15 0 8 -4
15 -10 15 -5 0 -10 -5 -10 -11 0 -5 -4 -7 -10 -4 -5 3 -10 -1 -10 -11 0 -12
-6 -15 -21 -11 -16 4 -18 3 -8 -9 6 -8 7 -14 2 -14 -5 0 -14 -14 -20 -31 -10
-26 -14 -29 -32 -20 -11 6 -22 20 -26 30 -6 20 -6 20 -26 0 -10 -10 -19 -23
-19 -29 0 -17 -37 4 -137 77 -54 39 -186 135 -293 213 -217 157 -395 286 -473
343 -29 21 -61 44 -72 52 -50 36 -274 199 -548 398 -164 120 -299 217 -300
217 -1 0 -29 -21 -62 -45z m3004 -4789 c9 -11 9 -16 -1 -22 -7 -4 -10 -4 -6 1
4 4 3 14 -3 22 -6 7 -9 13 -6 13 2 0 10 -6 16 -14z"/>
<path d="M580 2849 c0 -5 5 -7 10 -4 6 3 10 8 10 11 0 2 -4 4 -10 4 -5 0 -10
-5 -10 -11z"/>
</g>
</svg>
